<mxfile host="app.diagrams.net" modified="2023-06-17T06:40:40.792Z" agent="Mozilla/5.0 (Windows NT 10.0; Win64; x64) AppleWebKit/537.36 (KHTML, like Gecko) Chrome/114.0.0.0 Safari/537.36" etag="FJhZo91Xce6vMOssznO8" version="21.4.0" type="github">
  <diagram name="Page-1" id="-q0ZIksq4t_7uksSwHDg">
    <mxGraphModel dx="4920" dy="2147" grid="1" gridSize="10" guides="1" tooltips="1" connect="1" arrows="1" fold="1" page="1" pageScale="1" pageWidth="850" pageHeight="1100" math="0" shadow="0">
      <root>
        <mxCell id="0" />
        <mxCell id="1" parent="0" />
        <mxCell id="QPqO4CgqATaOOKAo1dil-87" value="" style="rounded=0;whiteSpace=wrap;html=1;rotation=90;fillColor=#3C4752;fontColor=#ffffff;strokeColor=#314354;" vertex="1" parent="1">
          <mxGeometry x="1020" y="330" width="505" height="280" as="geometry" />
        </mxCell>
        <mxCell id="QPqO4CgqATaOOKAo1dil-7" value="" style="rounded=1;whiteSpace=wrap;html=1;fillColor=#f5f5f5;strokeColor=#666666;gradientColor=#DEDEDE;" vertex="1" parent="1">
          <mxGeometry x="1163" y="335" width="225" height="60" as="geometry" />
        </mxCell>
        <mxCell id="QPqO4CgqATaOOKAo1dil-9" value="" style="rounded=1;whiteSpace=wrap;html=1;fillColor=#f5f5f5;strokeColor=#666666;gradientColor=#DEDEDE;" vertex="1" parent="1">
          <mxGeometry x="1163" y="265" width="225" height="60" as="geometry" />
        </mxCell>
        <mxCell id="QPqO4CgqATaOOKAo1dil-107" value="" style="rounded=1;whiteSpace=wrap;html=1;fillColor=#f5f5f5;strokeColor=#666666;gradientColor=#DEDEDE;" vertex="1" parent="1">
          <mxGeometry x="1163" y="405" width="225" height="60" as="geometry" />
        </mxCell>
        <mxCell id="QPqO4CgqATaOOKAo1dil-111" value="" style="rounded=1;whiteSpace=wrap;html=1;" vertex="1" parent="1">
          <mxGeometry x="1163" y="195" width="225" height="60" as="geometry" />
        </mxCell>
        <mxCell id="QPqO4CgqATaOOKAo1dil-128" value="" style="rounded=1;whiteSpace=wrap;html=1;fillColor=#f5f5f5;strokeColor=#666666;gradientColor=#DEDEDE;" vertex="1" parent="1">
          <mxGeometry x="1163" y="685" width="225" height="60" as="geometry" />
        </mxCell>
        <mxCell id="QPqO4CgqATaOOKAo1dil-129" value="" style="rounded=1;whiteSpace=wrap;html=1;fillColor=#f5f5f5;strokeColor=#666666;gradientColor=#DEDEDE;" vertex="1" parent="1">
          <mxGeometry x="1163" y="615" width="225" height="60" as="geometry" />
        </mxCell>
        <mxCell id="QPqO4CgqATaOOKAo1dil-130" value="" style="rounded=1;whiteSpace=wrap;html=1;fillColor=#f5f5f5;strokeColor=#666666;gradientColor=#DEDEDE;" vertex="1" parent="1">
          <mxGeometry x="1163" y="545" width="225" height="60" as="geometry" />
        </mxCell>
        <mxCell id="QPqO4CgqATaOOKAo1dil-131" value="" style="rounded=1;whiteSpace=wrap;html=1;fillColor=#f5f5f5;strokeColor=#666666;gradientColor=#DEDEDE;" vertex="1" parent="1">
          <mxGeometry x="1163" y="475" width="225" height="60" as="geometry" />
        </mxCell>
        <mxCell id="QPqO4CgqATaOOKAo1dil-104" value="" style="rounded=0;whiteSpace=wrap;html=1;rotation=90;fillColor=#3C4752;fontColor=#ffffff;strokeColor=#314354;" vertex="1" parent="1">
          <mxGeometry x="592.5" y="870" width="505" height="280" as="geometry" />
        </mxCell>
        <mxCell id="QPqO4CgqATaOOKAo1dil-29" value="" style="rounded=0;whiteSpace=wrap;html=1;rotation=90;fillColor=#3C4752;fontColor=#ffffff;strokeColor=#314354;" vertex="1" parent="1">
          <mxGeometry x="190" y="872.5" width="505" height="280" as="geometry" />
        </mxCell>
        <mxCell id="QPqO4CgqATaOOKAo1dil-2" value="&lt;font color=&quot;#ffedc4&quot; face=&quot;Tahoma&quot;&gt;Regulate&lt;/font&gt;" style="text;html=1;strokeColor=none;fillColor=none;align=center;verticalAlign=middle;whiteSpace=wrap;rounded=0;fontSize=50;" vertex="1" parent="1">
          <mxGeometry x="297.5" y="940" width="290" height="70" as="geometry" />
        </mxCell>
        <mxCell id="QPqO4CgqATaOOKAo1dil-3" value="" style="rounded=1;whiteSpace=wrap;html=1;fillColor=#ffcd28;strokeColor=#d79b00;gradientColor=#ffa500;" vertex="1" parent="1">
          <mxGeometry x="332.5" y="1180" width="100" height="50" as="geometry" />
        </mxCell>
        <mxCell id="QPqO4CgqATaOOKAo1dil-4" value="" style="rounded=1;whiteSpace=wrap;html=1;fillColor=#dae8fc;gradientColor=#7ea6e0;strokeColor=#6c8ebf;" vertex="1" parent="1">
          <mxGeometry x="452.5" y="1180" width="100" height="50" as="geometry" />
        </mxCell>
        <mxCell id="QPqO4CgqATaOOKAo1dil-6" value="Journal" style="text;html=1;strokeColor=none;fillColor=none;align=center;verticalAlign=middle;whiteSpace=wrap;rounded=0;fontSize=21;" vertex="1" parent="1">
          <mxGeometry x="472.5" y="1190" width="60" height="30" as="geometry" />
        </mxCell>
        <mxCell id="QPqO4CgqATaOOKAo1dil-23" value="Meditate" style="text;html=1;strokeColor=none;fillColor=none;align=center;verticalAlign=middle;whiteSpace=wrap;rounded=0;fontSize=21;" vertex="1" parent="1">
          <mxGeometry x="352.5" y="1190" width="60" height="30" as="geometry" />
        </mxCell>
        <mxCell id="QPqO4CgqATaOOKAo1dil-24" value="" style="verticalLabelPosition=bottom;verticalAlign=top;html=1;shadow=0;dashed=0;strokeWidth=1;shape=mxgraph.android.phone2;strokeColor=#c0c0c0;fillColor=#CCFFFF;" vertex="1" parent="1">
          <mxGeometry x="292.5" y="710" width="300" height="600" as="geometry" />
        </mxCell>
        <mxCell id="QPqO4CgqATaOOKAo1dil-30" value="" style="group" vertex="1" connectable="0" parent="1">
          <mxGeometry x="532.5" y="770" width="40" height="10" as="geometry" />
        </mxCell>
        <mxCell id="QPqO4CgqATaOOKAo1dil-25" value="" style="ellipse;whiteSpace=wrap;html=1;aspect=fixed;fillColor=#f5f5f5;strokeColor=#666666;gradientColor=#b3b3b3;" vertex="1" parent="QPqO4CgqATaOOKAo1dil-30">
          <mxGeometry width="10" height="10" as="geometry" />
        </mxCell>
        <mxCell id="QPqO4CgqATaOOKAo1dil-26" value="" style="ellipse;whiteSpace=wrap;html=1;aspect=fixed;fillColor=#f5f5f5;strokeColor=#666666;gradientColor=#b3b3b3;" vertex="1" parent="QPqO4CgqATaOOKAo1dil-30">
          <mxGeometry x="15" width="10" height="10" as="geometry" />
        </mxCell>
        <mxCell id="QPqO4CgqATaOOKAo1dil-27" value="" style="ellipse;whiteSpace=wrap;html=1;aspect=fixed;fillColor=#f5f5f5;gradientColor=#b3b3b3;strokeColor=#666666;" vertex="1" parent="QPqO4CgqATaOOKAo1dil-30">
          <mxGeometry x="30" width="10" height="10" as="geometry" />
        </mxCell>
        <mxCell id="QPqO4CgqATaOOKAo1dil-47" style="edgeStyle=orthogonalEdgeStyle;rounded=0;orthogonalLoop=1;jettySize=auto;html=1;" edge="1" parent="1" source="QPqO4CgqATaOOKAo1dil-27" target="QPqO4CgqATaOOKAo1dil-48">
          <mxGeometry relative="1" as="geometry">
            <mxPoint x="1057.5" y="775" as="targetPoint" />
          </mxGeometry>
        </mxCell>
        <mxCell id="QPqO4CgqATaOOKAo1dil-31" value="- View for journal page&lt;br style=&quot;font-size: 26px;&quot;&gt;- View for Meditate page&lt;br style=&quot;font-size: 26px;&quot;&gt;- View for settings&lt;br style=&quot;font-size: 26px;&quot;&gt;- include styles&amp;nbsp;&lt;br style=&quot;font-size: 26px;&quot;&gt;- include link in meditate and journal for history&lt;br&gt;- add settings icon for all pages?" style="text;html=1;strokeColor=none;fillColor=none;align=left;verticalAlign=middle;whiteSpace=wrap;rounded=0;fontSize=26;" vertex="1" parent="1">
          <mxGeometry x="-230" y="196.01" width="745" height="320" as="geometry" />
        </mxCell>
        <mxCell id="QPqO4CgqATaOOKAo1dil-71" value="" style="rounded=0;whiteSpace=wrap;html=1;rotation=90;fillColor=#3C4752;fontColor=#ffffff;strokeColor=#314354;" vertex="1" parent="1">
          <mxGeometry x="1405" y="1243.75" width="505" height="280" as="geometry" />
        </mxCell>
        <mxCell id="QPqO4CgqATaOOKAo1dil-73" value="" style="verticalLabelPosition=bottom;verticalAlign=top;html=1;shadow=0;dashed=0;strokeWidth=1;shape=mxgraph.android.phone2;strokeColor=#c0c0c0;fillColor=#CCFFFF;" vertex="1" parent="1">
          <mxGeometry x="1507.5" y="1083.75" width="300" height="600" as="geometry" />
        </mxCell>
        <mxCell id="QPqO4CgqATaOOKAo1dil-81" value="Add styles selection" style="text;html=1;strokeColor=none;fillColor=none;align=center;verticalAlign=middle;whiteSpace=wrap;rounded=0;fontColor=#FFEDC4;fontFamily=Tahoma;fontSize=23;" vertex="1" parent="1">
          <mxGeometry x="1592.5" y="1273.75" width="130" height="150" as="geometry" />
        </mxCell>
        <mxCell id="QPqO4CgqATaOOKAo1dil-84" value="" style="rounded=0;whiteSpace=wrap;html=1;rotation=90;fillColor=#3C4752;fontColor=#ffffff;strokeColor=#314354;" vertex="1" parent="1">
          <mxGeometry x="1785" y="1243.75" width="505" height="280" as="geometry" />
        </mxCell>
        <mxCell id="QPqO4CgqATaOOKAo1dil-85" value="" style="verticalLabelPosition=bottom;verticalAlign=top;html=1;shadow=0;dashed=0;strokeWidth=1;shape=mxgraph.android.phone2;strokeColor=#c0c0c0;fillColor=#CCFFFF;" vertex="1" parent="1">
          <mxGeometry x="1887.5" y="1083.75" width="300" height="600" as="geometry" />
        </mxCell>
        <mxCell id="QPqO4CgqATaOOKAo1dil-39" value="Change Password&lt;br style=&quot;font-size: 22px;&quot;&gt;Change Email&lt;br style=&quot;font-size: 22px;&quot;&gt;Add Email&lt;br style=&quot;font-size: 22px;&quot;&gt;" style="text;html=1;strokeColor=none;fillColor=none;align=center;verticalAlign=middle;whiteSpace=wrap;rounded=0;fontSize=22;fontColor=#FFEDC4;" vertex="1" parent="1">
          <mxGeometry x="1916.25" y="1276.25" width="242.5" height="130" as="geometry" />
        </mxCell>
        <mxCell id="QPqO4CgqATaOOKAo1dil-90" value="" style="rounded=0;whiteSpace=wrap;html=1;rotation=90;fillColor=#3C4752;fontColor=#ffffff;strokeColor=#314354;" vertex="1" parent="1">
          <mxGeometry x="1400" y="330" width="505" height="280" as="geometry" />
        </mxCell>
        <mxCell id="QPqO4CgqATaOOKAo1dil-91" value="" style="verticalLabelPosition=bottom;verticalAlign=top;html=1;shadow=0;dashed=0;strokeWidth=1;shape=mxgraph.android.phone2;strokeColor=#c0c0c0;fillColor=#CCFFFF;" vertex="1" parent="1">
          <mxGeometry x="1502.5" y="170" width="300" height="600" as="geometry" />
        </mxCell>
        <mxCell id="QPqO4CgqATaOOKAo1dil-92" value="Add types of notifications that users can select" style="text;html=1;strokeColor=none;fillColor=none;align=center;verticalAlign=middle;whiteSpace=wrap;rounded=0;fontSize=22;fontColor=#FFEDC4;" vertex="1" parent="1">
          <mxGeometry x="1531.25" y="362.5" width="242.5" height="130" as="geometry" />
        </mxCell>
        <mxCell id="QPqO4CgqATaOOKAo1dil-48" value="" style="verticalLabelPosition=bottom;verticalAlign=top;html=1;shadow=0;dashed=0;strokeWidth=1;shape=mxgraph.android.phone2;strokeColor=#c0c0c0;fillColor=#CCFFFF;" vertex="1" parent="1">
          <mxGeometry x="695" y="710" width="300" height="600" as="geometry" />
        </mxCell>
        <mxCell id="QPqO4CgqATaOOKAo1dil-50" value="" style="endArrow=none;html=1;rounded=0;strokeColor=#FFEDC4;strokeWidth=3;" edge="1" parent="1">
          <mxGeometry width="50" height="50" relative="1" as="geometry">
            <mxPoint x="739.6100000000001" y="827.5" as="sourcePoint" />
            <mxPoint x="950.3942658547794" y="827.5" as="targetPoint" />
            <Array as="points">
              <mxPoint x="889.6100000000001" y="827.5" />
            </Array>
          </mxGeometry>
        </mxCell>
        <mxCell id="QPqO4CgqATaOOKAo1dil-51" value="" style="endArrow=none;html=1;rounded=0;strokeColor=#FFEDC4;strokeWidth=3;" edge="1" parent="1">
          <mxGeometry width="50" height="50" relative="1" as="geometry">
            <mxPoint x="739.6100000000001" y="877.21" as="sourcePoint" />
            <mxPoint x="950.3942658547794" y="877.21" as="targetPoint" />
            <Array as="points">
              <mxPoint x="889.6100000000001" y="877.21" />
            </Array>
          </mxGeometry>
        </mxCell>
        <mxCell id="QPqO4CgqATaOOKAo1dil-52" value="" style="endArrow=none;html=1;rounded=0;strokeColor=#FFEDC4;strokeWidth=3;" edge="1" parent="1">
          <mxGeometry width="50" height="50" relative="1" as="geometry">
            <mxPoint x="739.6100000000001" y="937.5" as="sourcePoint" />
            <mxPoint x="950.3942658547794" y="937.5" as="targetPoint" />
            <Array as="points">
              <mxPoint x="889.6100000000001" y="937.5" />
            </Array>
          </mxGeometry>
        </mxCell>
        <mxCell id="QPqO4CgqATaOOKAo1dil-53" value="" style="endArrow=none;html=1;rounded=0;strokeColor=#FFEDC4;strokeWidth=3;" edge="1" parent="1">
          <mxGeometry width="50" height="50" relative="1" as="geometry">
            <mxPoint x="745.0000000000002" y="987.5" as="sourcePoint" />
            <mxPoint x="955.7842658547795" y="987.5" as="targetPoint" />
            <Array as="points">
              <mxPoint x="895.0000000000002" y="987.5" />
            </Array>
          </mxGeometry>
        </mxCell>
        <mxCell id="QPqO4CgqATaOOKAo1dil-56" value="&lt;span style=&quot;color: rgb(255, 237, 196); font-family: Tahoma; font-size: 16px;&quot;&gt;My Account&lt;/span&gt;" style="text;html=1;strokeColor=none;fillColor=none;align=center;verticalAlign=middle;whiteSpace=wrap;rounded=0;" vertex="1" parent="1">
          <mxGeometry x="780" y="941.25" width="130" height="40" as="geometry" />
        </mxCell>
        <mxCell id="QPqO4CgqATaOOKAo1dil-67" value="&lt;span style=&quot;color: rgb(255, 237, 196); font-family: Tahoma; font-size: 16px;&quot;&gt;Styles&lt;/span&gt;" style="text;html=1;strokeColor=none;fillColor=none;align=center;verticalAlign=middle;whiteSpace=wrap;rounded=0;" vertex="1" parent="1">
          <mxGeometry x="780" y="991.25" width="130" height="40" as="geometry" />
        </mxCell>
        <mxCell id="QPqO4CgqATaOOKAo1dil-83" value="" style="edgeStyle=orthogonalEdgeStyle;rounded=0;orthogonalLoop=1;jettySize=auto;html=1;entryX=0.479;entryY=0.011;entryDx=0;entryDy=0;entryPerimeter=0;" edge="1" parent="1" source="QPqO4CgqATaOOKAo1dil-56" target="QPqO4CgqATaOOKAo1dil-85">
          <mxGeometry relative="1" as="geometry">
            <mxPoint x="1567.5" y="950" as="targetPoint" />
          </mxGeometry>
        </mxCell>
        <mxCell id="QPqO4CgqATaOOKAo1dil-69" value="" style="edgeStyle=orthogonalEdgeStyle;rounded=0;orthogonalLoop=1;jettySize=auto;html=1;entryX=0.473;entryY=0.038;entryDx=0;entryDy=0;entryPerimeter=0;" edge="1" parent="1" source="QPqO4CgqATaOOKAo1dil-67" target="QPqO4CgqATaOOKAo1dil-73">
          <mxGeometry relative="1" as="geometry">
            <mxPoint x="1242.5" y="932.5" as="targetPoint" />
          </mxGeometry>
        </mxCell>
        <mxCell id="QPqO4CgqATaOOKAo1dil-103" value="" style="edgeStyle=orthogonalEdgeStyle;rounded=0;orthogonalLoop=1;jettySize=auto;html=1;entryX=0.502;entryY=1.005;entryDx=0;entryDy=0;entryPerimeter=0;" edge="1" parent="1" source="QPqO4CgqATaOOKAo1dil-55" target="QPqO4CgqATaOOKAo1dil-91">
          <mxGeometry relative="1" as="geometry">
            <mxPoint x="1302.5" y="842.4814814814813" as="targetPoint" />
          </mxGeometry>
        </mxCell>
        <mxCell id="QPqO4CgqATaOOKAo1dil-55" value="&lt;span style=&quot;color: rgb(255, 237, 196); font-family: Tahoma; font-size: 16px;&quot;&gt;Notifications&lt;/span&gt;" style="text;html=1;strokeColor=none;fillColor=none;align=center;verticalAlign=middle;whiteSpace=wrap;rounded=0;" vertex="1" parent="1">
          <mxGeometry x="780" y="840" width="130" height="30" as="geometry" />
        </mxCell>
        <mxCell id="QPqO4CgqATaOOKAo1dil-101" value="" style="edgeStyle=orthogonalEdgeStyle;rounded=0;orthogonalLoop=1;jettySize=auto;html=1;entryX=0.509;entryY=0.991;entryDx=0;entryDy=0;entryPerimeter=0;" edge="1" parent="1" source="QPqO4CgqATaOOKAo1dil-36" target="QPqO4CgqATaOOKAo1dil-88">
          <mxGeometry relative="1" as="geometry">
            <mxPoint x="1352.5000000000005" y="870.0297334607626" as="targetPoint" />
          </mxGeometry>
        </mxCell>
        <mxCell id="QPqO4CgqATaOOKAo1dil-36" value="&lt;p style=&quot;line-height: 160%;&quot;&gt;History&lt;br&gt;&lt;/p&gt;" style="text;html=1;strokeColor=none;fillColor=none;align=center;verticalAlign=middle;whiteSpace=wrap;rounded=0;fontSize=16;fontColor=#FFEDC4;fontFamily=Tahoma;spacing=6;spacingTop=3;" vertex="1" parent="1">
          <mxGeometry x="781.87" y="780" width="126.25" height="47.5" as="geometry" />
        </mxCell>
        <mxCell id="QPqO4CgqATaOOKAo1dil-28" value="Dark theme - Greys / Blacks&lt;br style=&quot;font-size: 22px;&quot;&gt;Burnt Orange - Meditate&lt;br style=&quot;font-size: 22px;&quot;&gt;Turquoise - Journal&lt;br style=&quot;font-size: 22px;&quot;&gt;" style="text;html=1;strokeColor=none;fillColor=none;align=center;verticalAlign=middle;whiteSpace=wrap;rounded=0;fontSize=22;fontColor=#FFEDC4;" vertex="1" parent="1">
          <mxGeometry x="1501.25" y="1406.25" width="312.5" height="150" as="geometry" />
        </mxCell>
        <mxCell id="QPqO4CgqATaOOKAo1dil-142" value="" style="rounded=1;whiteSpace=wrap;html=1;fillColor=#f5f5f5;strokeColor=#666666;gradientColor=#DEDEDE;" vertex="1" parent="1">
          <mxGeometry x="1163" y="195" width="225" height="60" as="geometry" />
        </mxCell>
        <mxCell id="QPqO4CgqATaOOKAo1dil-144" value="6-4-23" style="text;html=1;strokeColor=none;fillColor=none;align=center;verticalAlign=middle;whiteSpace=wrap;rounded=0;fontColor=#000000;fontFamily=Tahoma;fontSize=12;" vertex="1" parent="1">
          <mxGeometry x="1242.5" y="295" width="60" height="30" as="geometry" />
        </mxCell>
        <mxCell id="QPqO4CgqATaOOKAo1dil-145" value="6-5-23" style="text;html=1;strokeColor=none;fillColor=none;align=center;verticalAlign=middle;whiteSpace=wrap;rounded=0;fontColor=#000000;fontFamily=Tahoma;fontSize=12;" vertex="1" parent="1">
          <mxGeometry x="1245.5" y="365" width="60" height="30" as="geometry" />
        </mxCell>
        <mxCell id="QPqO4CgqATaOOKAo1dil-146" value="6-6-23" style="text;html=1;strokeColor=none;fillColor=none;align=center;verticalAlign=middle;whiteSpace=wrap;rounded=0;fontColor=#000000;fontFamily=Tahoma;fontSize=12;" vertex="1" parent="1">
          <mxGeometry x="1245.5" y="435" width="60" height="30" as="geometry" />
        </mxCell>
        <mxCell id="QPqO4CgqATaOOKAo1dil-147" value="6-7-23" style="text;html=1;strokeColor=none;fillColor=none;align=center;verticalAlign=middle;whiteSpace=wrap;rounded=0;fontColor=#000000;fontFamily=Tahoma;fontSize=12;" vertex="1" parent="1">
          <mxGeometry x="1245.5" y="505" width="60" height="30" as="geometry" />
        </mxCell>
        <mxCell id="QPqO4CgqATaOOKAo1dil-148" value="6-8-23" style="text;html=1;strokeColor=none;fillColor=none;align=center;verticalAlign=middle;whiteSpace=wrap;rounded=0;fontColor=#000000;fontFamily=Tahoma;fontSize=12;" vertex="1" parent="1">
          <mxGeometry x="1245.5" y="575" width="60" height="30" as="geometry" />
        </mxCell>
        <mxCell id="QPqO4CgqATaOOKAo1dil-149" value="6-10-23" style="text;html=1;strokeColor=none;fillColor=none;align=center;verticalAlign=middle;whiteSpace=wrap;rounded=0;fontColor=#000000;fontFamily=Tahoma;fontSize=12;" vertex="1" parent="1">
          <mxGeometry x="1245.5" y="715" width="60" height="30" as="geometry" />
        </mxCell>
        <mxCell id="QPqO4CgqATaOOKAo1dil-150" value="6-9-23" style="text;html=1;strokeColor=none;fillColor=none;align=center;verticalAlign=middle;whiteSpace=wrap;rounded=0;fontColor=#000000;fontFamily=Tahoma;fontSize=12;" vertex="1" parent="1">
          <mxGeometry x="1242.5" y="645" width="60" height="30" as="geometry" />
        </mxCell>
        <mxCell id="QPqO4CgqATaOOKAo1dil-151" value="6-3-23" style="text;html=1;strokeColor=none;fillColor=none;align=center;verticalAlign=middle;whiteSpace=wrap;rounded=0;fontColor=#000000;fontFamily=Tahoma;fontSize=12;" vertex="1" parent="1">
          <mxGeometry x="1242.5" y="225" width="60" height="30" as="geometry" />
        </mxCell>
        <mxCell id="QPqO4CgqATaOOKAo1dil-152" value="" style="verticalLabelPosition=bottom;verticalAlign=top;html=1;shadow=0;dashed=0;strokeWidth=1;shape=mxgraph.android.quickscroll3;dy=0.417;fillColor=#808080;strokeColor=#FFFFFF;" vertex="1" parent="1">
          <mxGeometry x="1405" y="220" width="6" height="500" as="geometry" />
        </mxCell>
        <mxCell id="QPqO4CgqATaOOKAo1dil-153" value="" style="verticalLabelPosition=bottom;verticalAlign=top;html=1;shape=mxgraph.basic.orthogonal_triangle;flipH=1;fillColor=#ffcd28;gradientColor=#ffa500;strokeColor=#d79b00;shadow=1;" vertex="1" parent="1">
          <mxGeometry x="1172.5" y="552.5" width="67.5" height="45" as="geometry" />
        </mxCell>
        <mxCell id="QPqO4CgqATaOOKAo1dil-161" value="" style="edgeStyle=orthogonalEdgeStyle;rounded=0;orthogonalLoop=1;jettySize=auto;html=1;entryX=0.549;entryY=-0.001;entryDx=0;entryDy=0;entryPerimeter=0;" edge="1" parent="1" source="QPqO4CgqATaOOKAo1dil-154" target="QPqO4CgqATaOOKAo1dil-157">
          <mxGeometry relative="1" as="geometry">
            <mxPoint x="1130" y="990" as="targetPoint" />
          </mxGeometry>
        </mxCell>
        <mxCell id="QPqO4CgqATaOOKAo1dil-154" value="&lt;span style=&quot;color: rgb(255, 237, 196); font-family: Tahoma; font-size: 16px;&quot;&gt;Settings&lt;/span&gt;" style="text;html=1;strokeColor=none;fillColor=none;align=center;verticalAlign=middle;whiteSpace=wrap;rounded=0;" vertex="1" parent="1">
          <mxGeometry x="780" y="1043.75" width="130" height="40" as="geometry" />
        </mxCell>
        <mxCell id="QPqO4CgqATaOOKAo1dil-155" value="" style="endArrow=none;html=1;rounded=0;strokeColor=#FFEDC4;strokeWidth=3;" edge="1" parent="1">
          <mxGeometry width="50" height="50" relative="1" as="geometry">
            <mxPoint x="739.6000000000003" y="1040" as="sourcePoint" />
            <mxPoint x="950.3842658547795" y="1040" as="targetPoint" />
            <Array as="points">
              <mxPoint x="889.6000000000003" y="1040" />
            </Array>
          </mxGeometry>
        </mxCell>
        <mxCell id="QPqO4CgqATaOOKAo1dil-156" value="" style="rounded=0;whiteSpace=wrap;html=1;rotation=90;fillColor=#3C4752;fontColor=#ffffff;strokeColor=#314354;" vertex="1" parent="1">
          <mxGeometry x="980" y="1243.75" width="505" height="280" as="geometry" />
        </mxCell>
        <mxCell id="QPqO4CgqATaOOKAo1dil-157" value="" style="verticalLabelPosition=bottom;verticalAlign=top;html=1;shadow=0;dashed=0;strokeWidth=1;shape=mxgraph.android.phone2;strokeColor=#c0c0c0;fillColor=#CCFFFF;" vertex="1" parent="1">
          <mxGeometry x="1082.5" y="1083.75" width="300" height="600" as="geometry" />
        </mxCell>
        <mxCell id="QPqO4CgqATaOOKAo1dil-158" value="Add settings selection" style="text;html=1;strokeColor=none;fillColor=none;align=center;verticalAlign=middle;whiteSpace=wrap;rounded=0;fontColor=#FFEDC4;fontFamily=Tahoma;fontSize=23;" vertex="1" parent="1">
          <mxGeometry x="1167.5" y="1273.75" width="130" height="150" as="geometry" />
        </mxCell>
        <mxCell id="QPqO4CgqATaOOKAo1dil-159" value="Add settings that interact with phone&lt;br&gt;- not sure what they are" style="text;html=1;strokeColor=none;fillColor=none;align=center;verticalAlign=middle;whiteSpace=wrap;rounded=0;fontSize=22;fontColor=#FFEDC4;" vertex="1" parent="1">
          <mxGeometry x="1120" y="1387.5" width="223.75" height="187.5" as="geometry" />
        </mxCell>
        <mxCell id="QPqO4CgqATaOOKAo1dil-167" value="" style="edgeStyle=orthogonalEdgeStyle;rounded=0;orthogonalLoop=1;jettySize=auto;html=1;entryX=0.491;entryY=1;entryDx=0;entryDy=0;entryPerimeter=0;" edge="1" parent="1" source="QPqO4CgqATaOOKAo1dil-162" target="QPqO4CgqATaOOKAo1dil-164">
          <mxGeometry relative="1" as="geometry">
            <mxPoint x="1977.5" y="910" as="targetPoint" />
          </mxGeometry>
        </mxCell>
        <mxCell id="QPqO4CgqATaOOKAo1dil-162" value="&lt;span style=&quot;color: rgb(255, 237, 196); font-family: Tahoma; font-size: 16px;&quot;&gt;Goals&lt;/span&gt;" style="text;html=1;strokeColor=none;fillColor=none;align=center;verticalAlign=middle;whiteSpace=wrap;rounded=0;" vertex="1" parent="1">
          <mxGeometry x="779.99" y="890" width="130" height="40" as="geometry" />
        </mxCell>
        <mxCell id="QPqO4CgqATaOOKAo1dil-163" value="" style="rounded=0;whiteSpace=wrap;html=1;rotation=90;fillColor=#3C4752;fontColor=#ffffff;strokeColor=#314354;" vertex="1" parent="1">
          <mxGeometry x="1785" y="330" width="505" height="280" as="geometry" />
        </mxCell>
        <mxCell id="QPqO4CgqATaOOKAo1dil-164" value="" style="verticalLabelPosition=bottom;verticalAlign=top;html=1;shadow=0;dashed=0;strokeWidth=1;shape=mxgraph.android.phone2;strokeColor=#c0c0c0;fillColor=#CCFFFF;" vertex="1" parent="1">
          <mxGeometry x="1887.5" y="170" width="300" height="600" as="geometry" />
        </mxCell>
        <mxCell id="QPqO4CgqATaOOKAo1dil-165" value="Add goals for&lt;br&gt;- meditation time&lt;br&gt;- journaling or requirements&lt;br&gt;- daily records for personal goals&lt;br&gt;" style="text;html=1;strokeColor=none;fillColor=none;align=center;verticalAlign=middle;whiteSpace=wrap;rounded=0;fontSize=22;fontColor=#FFEDC4;" vertex="1" parent="1">
          <mxGeometry x="1916.25" y="362.5" width="242.5" height="237.5" as="geometry" />
        </mxCell>
        <mxCell id="QPqO4CgqATaOOKAo1dil-168" value="" style="verticalLabelPosition=bottom;verticalAlign=top;html=1;shape=mxgraph.basic.orthogonal_triangle;flipH=1;fillColor=#ffcd28;gradientColor=#ffa500;strokeColor=#d79b00;shadow=1;" vertex="1" parent="1">
          <mxGeometry x="1167.5" y="650" width="67.5" height="17.5" as="geometry" />
        </mxCell>
        <mxCell id="QPqO4CgqATaOOKAo1dil-169" value="" style="verticalLabelPosition=bottom;verticalAlign=top;html=1;shape=mxgraph.basic.orthogonal_triangle;flipH=1;fillColor=#ffcd28;gradientColor=#ffa500;strokeColor=#d79b00;shadow=1;" vertex="1" parent="1">
          <mxGeometry x="1167.5" y="710" width="67.5" height="27.5" as="geometry" />
        </mxCell>
        <mxCell id="QPqO4CgqATaOOKAo1dil-170" value="" style="verticalLabelPosition=bottom;verticalAlign=top;html=1;shape=mxgraph.basic.orthogonal_triangle;flipH=1;fillColor=#ffcd28;gradientColor=#ffa500;strokeColor=#d79b00;shadow=1;" vertex="1" parent="1">
          <mxGeometry x="1175" y="432.5" width="67.5" height="27.5" as="geometry" />
        </mxCell>
        <mxCell id="QPqO4CgqATaOOKAo1dil-172" value="" style="verticalLabelPosition=bottom;verticalAlign=top;html=1;shape=mxgraph.basic.orthogonal_triangle;flipH=1;fillColor=#ffcd28;gradientColor=#ffa500;strokeColor=#d79b00;shadow=1;" vertex="1" parent="1">
          <mxGeometry x="1172.5" y="500" width="67.5" height="27.5" as="geometry" />
        </mxCell>
        <mxCell id="QPqO4CgqATaOOKAo1dil-173" value="" style="ellipse;whiteSpace=wrap;html=1;aspect=fixed;shadow=1;strokeColor=#3399FF;fillColor=#d5e8d4;gradientColor=#97d077;" vertex="1" parent="1">
          <mxGeometry x="1320" y="410" width="50" height="50" as="geometry" />
        </mxCell>
        <mxCell id="QPqO4CgqATaOOKAo1dil-174" value="" style="ellipse;whiteSpace=wrap;html=1;aspect=fixed;shadow=0;strokeColor=#3399FF;fillColor=#d5e8d4;gradientColor=#97d077;" vertex="1" parent="1">
          <mxGeometry x="1325" y="415" width="40" height="40" as="geometry" />
        </mxCell>
        <mxCell id="QPqO4CgqATaOOKAo1dil-175" value="" style="ellipse;whiteSpace=wrap;html=1;aspect=fixed;shadow=0;strokeColor=#3399FF;gradientColor=#97d077;fillColor=#d5e8d4;" vertex="1" parent="1">
          <mxGeometry x="1329.38" y="419.38" width="31.25" height="31.25" as="geometry" />
        </mxCell>
        <mxCell id="QPqO4CgqATaOOKAo1dil-176" value="" style="ellipse;whiteSpace=wrap;html=1;aspect=fixed;shadow=0;strokeColor=#3399FF;fillColor=#d5e8d4;gradientColor=#97d077;" vertex="1" parent="1">
          <mxGeometry x="1334" y="424.01" width="22" height="22" as="geometry" />
        </mxCell>
        <mxCell id="QPqO4CgqATaOOKAo1dil-177" value="" style="ellipse;whiteSpace=wrap;html=1;aspect=fixed;shadow=0;fillColor=#d5e8d4;gradientColor=#97d077;strokeColor=#3399FF;" vertex="1" parent="1">
          <mxGeometry x="1338" y="428" width="14" height="14" as="geometry" />
        </mxCell>
        <mxCell id="QPqO4CgqATaOOKAo1dil-180" value="" style="ellipse;whiteSpace=wrap;html=1;aspect=fixed;shadow=1;strokeColor=#3399FF;fillColor=#f8cecc;gradientColor=#ea6b66;" vertex="1" parent="1">
          <mxGeometry x="1320" y="480" width="50" height="50" as="geometry" />
        </mxCell>
        <mxCell id="QPqO4CgqATaOOKAo1dil-181" value="" style="ellipse;whiteSpace=wrap;html=1;aspect=fixed;shadow=0;strokeColor=#3399FF;fillColor=#f8cecc;gradientColor=#ea6b66;" vertex="1" parent="1">
          <mxGeometry x="1325" y="485" width="40" height="40" as="geometry" />
        </mxCell>
        <mxCell id="QPqO4CgqATaOOKAo1dil-182" value="" style="ellipse;whiteSpace=wrap;html=1;aspect=fixed;shadow=0;strokeColor=#3399FF;gradientColor=#97d077;fillColor=#d5e8d4;" vertex="1" parent="1">
          <mxGeometry x="1329.38" y="489.38" width="31.25" height="31.25" as="geometry" />
        </mxCell>
        <mxCell id="QPqO4CgqATaOOKAo1dil-183" value="" style="ellipse;whiteSpace=wrap;html=1;aspect=fixed;shadow=0;strokeColor=#3399FF;fillColor=#d5e8d4;gradientColor=#97d077;" vertex="1" parent="1">
          <mxGeometry x="1334" y="494.01" width="22" height="22" as="geometry" />
        </mxCell>
        <mxCell id="QPqO4CgqATaOOKAo1dil-184" value="" style="ellipse;whiteSpace=wrap;html=1;aspect=fixed;shadow=0;fillColor=#d5e8d4;gradientColor=#97d077;strokeColor=#3399FF;" vertex="1" parent="1">
          <mxGeometry x="1338" y="498" width="14" height="14" as="geometry" />
        </mxCell>
        <mxCell id="QPqO4CgqATaOOKAo1dil-185" value="" style="ellipse;whiteSpace=wrap;html=1;aspect=fixed;shadow=1;strokeColor=#3399FF;fillColor=#f8cecc;gradientColor=#ea6b66;" vertex="1" parent="1">
          <mxGeometry x="1320" y="340" width="50" height="50" as="geometry" />
        </mxCell>
        <mxCell id="QPqO4CgqATaOOKAo1dil-186" value="" style="ellipse;whiteSpace=wrap;html=1;aspect=fixed;shadow=0;strokeColor=#3399FF;fillColor=#f8cecc;gradientColor=#ea6b66;" vertex="1" parent="1">
          <mxGeometry x="1325" y="345" width="40" height="40" as="geometry" />
        </mxCell>
        <mxCell id="QPqO4CgqATaOOKAo1dil-187" value="" style="ellipse;whiteSpace=wrap;html=1;aspect=fixed;shadow=0;strokeColor=#3399FF;gradientColor=#97d077;fillColor=#d5e8d4;" vertex="1" parent="1">
          <mxGeometry x="1329.38" y="349.38" width="31.25" height="31.25" as="geometry" />
        </mxCell>
        <mxCell id="QPqO4CgqATaOOKAo1dil-188" value="" style="ellipse;whiteSpace=wrap;html=1;aspect=fixed;shadow=0;strokeColor=#3399FF;fillColor=#d5e8d4;gradientColor=#97d077;" vertex="1" parent="1">
          <mxGeometry x="1334" y="354.01" width="22" height="22" as="geometry" />
        </mxCell>
        <mxCell id="QPqO4CgqATaOOKAo1dil-189" value="" style="ellipse;whiteSpace=wrap;html=1;aspect=fixed;shadow=0;fillColor=#d5e8d4;gradientColor=#97d077;strokeColor=#3399FF;" vertex="1" parent="1">
          <mxGeometry x="1338" y="358" width="14" height="14" as="geometry" />
        </mxCell>
        <mxCell id="QPqO4CgqATaOOKAo1dil-190" value="" style="ellipse;whiteSpace=wrap;html=1;aspect=fixed;shadow=1;strokeColor=#3399FF;fillColor=#f8cecc;gradientColor=#ea6b66;" vertex="1" parent="1">
          <mxGeometry x="1320" y="270" width="50" height="50" as="geometry" />
        </mxCell>
        <mxCell id="QPqO4CgqATaOOKAo1dil-191" value="" style="ellipse;whiteSpace=wrap;html=1;aspect=fixed;shadow=0;strokeColor=#3399FF;fillColor=#f8cecc;gradientColor=#ea6b66;" vertex="1" parent="1">
          <mxGeometry x="1325" y="275" width="40" height="40" as="geometry" />
        </mxCell>
        <mxCell id="QPqO4CgqATaOOKAo1dil-192" value="" style="ellipse;whiteSpace=wrap;html=1;aspect=fixed;shadow=0;strokeColor=#3399FF;gradientColor=#97d077;fillColor=#d5e8d4;" vertex="1" parent="1">
          <mxGeometry x="1329.38" y="279.38" width="31.25" height="31.25" as="geometry" />
        </mxCell>
        <mxCell id="QPqO4CgqATaOOKAo1dil-193" value="" style="ellipse;whiteSpace=wrap;html=1;aspect=fixed;shadow=0;strokeColor=#3399FF;fillColor=#d5e8d4;gradientColor=#97d077;" vertex="1" parent="1">
          <mxGeometry x="1334" y="284.01" width="22" height="22" as="geometry" />
        </mxCell>
        <mxCell id="QPqO4CgqATaOOKAo1dil-194" value="" style="ellipse;whiteSpace=wrap;html=1;aspect=fixed;shadow=0;fillColor=#d5e8d4;gradientColor=#97d077;strokeColor=#3399FF;" vertex="1" parent="1">
          <mxGeometry x="1338" y="288" width="14" height="14" as="geometry" />
        </mxCell>
        <mxCell id="QPqO4CgqATaOOKAo1dil-195" value="" style="ellipse;whiteSpace=wrap;html=1;aspect=fixed;shadow=1;strokeColor=#3399FF;fillColor=#d5e8d4;gradientColor=#97d077;" vertex="1" parent="1">
          <mxGeometry x="1320" y="200" width="50" height="50" as="geometry" />
        </mxCell>
        <mxCell id="QPqO4CgqATaOOKAo1dil-196" value="" style="ellipse;whiteSpace=wrap;html=1;aspect=fixed;shadow=0;strokeColor=#3399FF;fillColor=#d5e8d4;gradientColor=#97d077;" vertex="1" parent="1">
          <mxGeometry x="1325" y="205" width="40" height="40" as="geometry" />
        </mxCell>
        <mxCell id="QPqO4CgqATaOOKAo1dil-197" value="" style="ellipse;whiteSpace=wrap;html=1;aspect=fixed;shadow=0;strokeColor=#3399FF;gradientColor=#97d077;fillColor=#d5e8d4;" vertex="1" parent="1">
          <mxGeometry x="1329.38" y="209.38" width="31.25" height="31.25" as="geometry" />
        </mxCell>
        <mxCell id="QPqO4CgqATaOOKAo1dil-198" value="" style="ellipse;whiteSpace=wrap;html=1;aspect=fixed;shadow=0;strokeColor=#3399FF;fillColor=#d5e8d4;gradientColor=#97d077;" vertex="1" parent="1">
          <mxGeometry x="1334" y="214.01" width="22" height="22" as="geometry" />
        </mxCell>
        <mxCell id="QPqO4CgqATaOOKAo1dil-199" value="" style="ellipse;whiteSpace=wrap;html=1;aspect=fixed;shadow=0;fillColor=#d5e8d4;gradientColor=#97d077;strokeColor=#3399FF;" vertex="1" parent="1">
          <mxGeometry x="1338" y="218" width="14" height="14" as="geometry" />
        </mxCell>
        <mxCell id="QPqO4CgqATaOOKAo1dil-200" value="" style="verticalLabelPosition=bottom;verticalAlign=top;html=1;shape=mxgraph.basic.orthogonal_triangle;flipH=1;fillColor=#ffcd28;gradientColor=#ffa500;strokeColor=#d79b00;shadow=1;" vertex="1" parent="1">
          <mxGeometry x="1172.5" y="340" width="67.5" height="45.5" as="geometry" />
        </mxCell>
        <mxCell id="QPqO4CgqATaOOKAo1dil-201" value="" style="verticalLabelPosition=bottom;verticalAlign=top;html=1;shape=mxgraph.basic.orthogonal_triangle;flipH=1;fillColor=#ffcd28;gradientColor=#ffa500;strokeColor=#d79b00;shadow=1;" vertex="1" parent="1">
          <mxGeometry x="1172.5" y="310" width="67.5" height="10" as="geometry" />
        </mxCell>
        <mxCell id="QPqO4CgqATaOOKAo1dil-203" value="" style="verticalLabelPosition=bottom;verticalAlign=top;html=1;shape=mxgraph.basic.orthogonal_triangle;flipH=1;fillColor=#ffcd28;gradientColor=#ffa500;strokeColor=#d79b00;shadow=1;" vertex="1" parent="1">
          <mxGeometry x="1172.5" y="240" width="67.5" height="10" as="geometry" />
        </mxCell>
        <mxCell id="QPqO4CgqATaOOKAo1dil-205" value="" style="ellipse;whiteSpace=wrap;html=1;aspect=fixed;shadow=1;strokeColor=#3399FF;fillColor=#f8cecc;gradientColor=#ea6b66;" vertex="1" parent="1">
          <mxGeometry x="1320.01" y="550" width="50" height="50" as="geometry" />
        </mxCell>
        <mxCell id="QPqO4CgqATaOOKAo1dil-206" value="" style="ellipse;whiteSpace=wrap;html=1;aspect=fixed;shadow=0;strokeColor=#3399FF;fillColor=#f8cecc;gradientColor=#ea6b66;" vertex="1" parent="1">
          <mxGeometry x="1325.01" y="555" width="40" height="40" as="geometry" />
        </mxCell>
        <mxCell id="QPqO4CgqATaOOKAo1dil-207" value="" style="ellipse;whiteSpace=wrap;html=1;aspect=fixed;shadow=0;strokeColor=#3399FF;gradientColor=#ea6b66;fillColor=#f8cecc;" vertex="1" parent="1">
          <mxGeometry x="1329.39" y="559.38" width="31.25" height="31.25" as="geometry" />
        </mxCell>
        <mxCell id="QPqO4CgqATaOOKAo1dil-208" value="" style="ellipse;whiteSpace=wrap;html=1;aspect=fixed;shadow=0;strokeColor=#3399FF;fillColor=#d5e8d4;gradientColor=#97d077;" vertex="1" parent="1">
          <mxGeometry x="1334.01" y="564.01" width="22" height="22" as="geometry" />
        </mxCell>
        <mxCell id="QPqO4CgqATaOOKAo1dil-209" value="" style="ellipse;whiteSpace=wrap;html=1;aspect=fixed;shadow=0;fillColor=#d5e8d4;gradientColor=#97d077;strokeColor=#3399FF;" vertex="1" parent="1">
          <mxGeometry x="1338.01" y="568" width="14" height="14" as="geometry" />
        </mxCell>
        <mxCell id="QPqO4CgqATaOOKAo1dil-215" value="" style="ellipse;whiteSpace=wrap;html=1;aspect=fixed;shadow=1;strokeColor=#3399FF;fillColor=#f8cecc;gradientColor=#ea6b66;" vertex="1" parent="1">
          <mxGeometry x="1320.02" y="620" width="50" height="50" as="geometry" />
        </mxCell>
        <mxCell id="QPqO4CgqATaOOKAo1dil-216" value="" style="ellipse;whiteSpace=wrap;html=1;aspect=fixed;shadow=0;strokeColor=#3399FF;fillColor=#f8cecc;gradientColor=#ea6b66;" vertex="1" parent="1">
          <mxGeometry x="1325.02" y="625" width="40" height="40" as="geometry" />
        </mxCell>
        <mxCell id="QPqO4CgqATaOOKAo1dil-217" value="" style="ellipse;whiteSpace=wrap;html=1;aspect=fixed;shadow=0;strokeColor=#3399FF;gradientColor=#ea6b66;fillColor=#f8cecc;" vertex="1" parent="1">
          <mxGeometry x="1329.4" y="629.38" width="31.25" height="31.25" as="geometry" />
        </mxCell>
        <mxCell id="QPqO4CgqATaOOKAo1dil-218" value="" style="ellipse;whiteSpace=wrap;html=1;aspect=fixed;shadow=0;strokeColor=#3399FF;fillColor=#f8cecc;gradientColor=#ea6b66;" vertex="1" parent="1">
          <mxGeometry x="1334.02" y="634.01" width="22" height="22" as="geometry" />
        </mxCell>
        <mxCell id="QPqO4CgqATaOOKAo1dil-219" value="" style="ellipse;whiteSpace=wrap;html=1;aspect=fixed;shadow=0;fillColor=#f8cecc;gradientColor=#ea6b66;strokeColor=#3399FF;" vertex="1" parent="1">
          <mxGeometry x="1338.02" y="638" width="14" height="14" as="geometry" />
        </mxCell>
        <mxCell id="QPqO4CgqATaOOKAo1dil-220" value="" style="ellipse;whiteSpace=wrap;html=1;aspect=fixed;shadow=1;strokeColor=#3399FF;fillColor=#f8cecc;gradientColor=#ea6b66;" vertex="1" parent="1">
          <mxGeometry x="1320.03" y="690" width="50" height="50" as="geometry" />
        </mxCell>
        <mxCell id="QPqO4CgqATaOOKAo1dil-221" value="" style="ellipse;whiteSpace=wrap;html=1;aspect=fixed;shadow=0;strokeColor=#3399FF;fillColor=#f8cecc;gradientColor=#ea6b66;" vertex="1" parent="1">
          <mxGeometry x="1325.03" y="695" width="40" height="40" as="geometry" />
        </mxCell>
        <mxCell id="QPqO4CgqATaOOKAo1dil-222" value="" style="ellipse;whiteSpace=wrap;html=1;aspect=fixed;shadow=0;strokeColor=#3399FF;gradientColor=#97d077;fillColor=#d5e8d4;" vertex="1" parent="1">
          <mxGeometry x="1329.41" y="699.38" width="31.25" height="31.25" as="geometry" />
        </mxCell>
        <mxCell id="QPqO4CgqATaOOKAo1dil-223" value="" style="ellipse;whiteSpace=wrap;html=1;aspect=fixed;shadow=0;strokeColor=#3399FF;fillColor=#d5e8d4;gradientColor=#97d077;" vertex="1" parent="1">
          <mxGeometry x="1334.03" y="704.01" width="22" height="22" as="geometry" />
        </mxCell>
        <mxCell id="QPqO4CgqATaOOKAo1dil-88" value="" style="verticalLabelPosition=bottom;verticalAlign=top;html=1;shadow=0;dashed=0;strokeWidth=1;shape=mxgraph.android.phone2;strokeColor=#c0c0c0;fillColor=#CCFFFF;" vertex="1" parent="1">
          <mxGeometry x="1122.5" y="170" width="300" height="600" as="geometry" />
        </mxCell>
        <mxCell id="QPqO4CgqATaOOKAo1dil-224" value="" style="ellipse;whiteSpace=wrap;html=1;aspect=fixed;shadow=0;fillColor=#d5e8d4;gradientColor=#97d077;strokeColor=#3399FF;" vertex="1" parent="1">
          <mxGeometry x="1338.03" y="708" width="14" height="14" as="geometry" />
        </mxCell>
        <mxCell id="QPqO4CgqATaOOKAo1dil-226" value="" style="rounded=0;whiteSpace=wrap;html=1;rotation=90;fillColor=#3C4752;fontColor=#ffffff;strokeColor=#314354;" vertex="1" parent="1">
          <mxGeometry x="592.49" y="222.75" width="505" height="280" as="geometry" />
        </mxCell>
        <mxCell id="QPqO4CgqATaOOKAo1dil-227" value="" style="verticalLabelPosition=bottom;verticalAlign=top;html=1;shadow=0;dashed=0;strokeWidth=1;shape=mxgraph.android.phone2;strokeColor=#c0c0c0;fillColor=#CCFFFF;" vertex="1" parent="1">
          <mxGeometry x="694.99" y="62.75" width="300" height="600" as="geometry" />
        </mxCell>
        <mxCell id="QPqO4CgqATaOOKAo1dil-228" value="Detailed view&lt;br&gt;OR&lt;br&gt;split button to click for meditate or journal" style="text;html=1;strokeColor=none;fillColor=none;align=center;verticalAlign=middle;whiteSpace=wrap;rounded=0;fontSize=22;fontColor=#FFEDC4;" vertex="1" parent="1">
          <mxGeometry x="723.74" y="255.25" width="242.5" height="130" as="geometry" />
        </mxCell>
        <mxCell id="QPqO4CgqATaOOKAo1dil-225" value="" style="edgeStyle=orthogonalEdgeStyle;rounded=0;orthogonalLoop=1;jettySize=auto;html=1;entryX=1;entryY=0.592;entryDx=0;entryDy=0;entryPerimeter=0;" edge="1" parent="1" source="QPqO4CgqATaOOKAo1dil-7" target="QPqO4CgqATaOOKAo1dil-227">
          <mxGeometry relative="1" as="geometry">
            <mxPoint x="960" y="460" as="targetPoint" />
          </mxGeometry>
        </mxCell>
        <mxCell id="QPqO4CgqATaOOKAo1dil-232" value="" style="edgeStyle=orthogonalEdgeStyle;rounded=0;orthogonalLoop=1;jettySize=auto;html=1;entryX=0.507;entryY=0.001;entryDx=0;entryDy=0;entryPerimeter=0;" edge="1" parent="1" source="QPqO4CgqATaOOKAo1dil-3" target="QPqO4CgqATaOOKAo1dil-251">
          <mxGeometry relative="1" as="geometry">
            <mxPoint x="320" y="1450" as="targetPoint" />
          </mxGeometry>
        </mxCell>
        <mxCell id="QPqO4CgqATaOOKAo1dil-230" value="" style="edgeStyle=orthogonalEdgeStyle;rounded=0;orthogonalLoop=1;jettySize=auto;html=1;entryX=0.492;entryY=0.006;entryDx=0;entryDy=0;entryPerimeter=0;" edge="1" parent="1" source="QPqO4CgqATaOOKAo1dil-4" target="QPqO4CgqATaOOKAo1dil-234">
          <mxGeometry relative="1" as="geometry">
            <mxPoint x="522.5714285714284" y="1456.25" as="targetPoint" />
            <Array as="points">
              <mxPoint x="503" y="1380" />
              <mxPoint x="843" y="1380" />
            </Array>
          </mxGeometry>
        </mxCell>
        <mxCell id="QPqO4CgqATaOOKAo1dil-233" value="" style="rounded=0;whiteSpace=wrap;html=1;rotation=90;fillColor=#3C4752;fontColor=#ffffff;strokeColor=#314354;" vertex="1" parent="1">
          <mxGeometry x="592.5" y="1630" width="505" height="280" as="geometry" />
        </mxCell>
        <mxCell id="QPqO4CgqATaOOKAo1dil-234" value="" style="verticalLabelPosition=bottom;verticalAlign=top;html=1;shadow=0;dashed=0;strokeWidth=1;shape=mxgraph.android.phone2;strokeColor=#c0c0c0;fillColor=#CCFFFF;" vertex="1" parent="1">
          <mxGeometry x="695" y="1470" width="300" height="600" as="geometry" />
        </mxCell>
        <mxCell id="QPqO4CgqATaOOKAo1dil-246" value="" style="rounded=0;whiteSpace=wrap;html=1;rotation=90;fillColor=#3C4752;fontColor=#ffffff;strokeColor=#314354;" vertex="1" parent="1">
          <mxGeometry x="-870" y="1547.5" width="505" height="280" as="geometry" />
        </mxCell>
        <mxCell id="QPqO4CgqATaOOKAo1dil-247" value="" style="verticalLabelPosition=bottom;verticalAlign=top;html=1;shadow=0;dashed=0;strokeWidth=1;shape=mxgraph.android.phone2;strokeColor=#c0c0c0;fillColor=#CCFFFF;" vertex="1" parent="1">
          <mxGeometry x="-767.5" y="1387.5" width="300" height="600" as="geometry" />
        </mxCell>
        <mxCell id="QPqO4CgqATaOOKAo1dil-248" value="blank" style="text;html=1;strokeColor=none;fillColor=none;align=center;verticalAlign=middle;whiteSpace=wrap;rounded=0;fontColor=#FFEDC4;fontFamily=Tahoma;fontSize=23;" vertex="1" parent="1">
          <mxGeometry x="-682.5" y="1612.5" width="130" height="150" as="geometry" />
        </mxCell>
        <mxCell id="QPqO4CgqATaOOKAo1dil-249" value="Journal with fields for entering info" style="text;html=1;strokeColor=none;fillColor=none;align=center;verticalAlign=middle;whiteSpace=wrap;rounded=0;fontColor=#FFEDC4;fontFamily=Tahoma;fontSize=23;" vertex="1" parent="1">
          <mxGeometry x="740" y="1650" width="198.13" height="200" as="geometry" />
        </mxCell>
        <mxCell id="QPqO4CgqATaOOKAo1dil-250" value="" style="rounded=0;whiteSpace=wrap;html=1;rotation=90;fillColor=#3C4752;fontColor=#ffffff;strokeColor=#314354;" vertex="1" parent="1">
          <mxGeometry x="67.5" y="1630" width="505" height="280" as="geometry" />
        </mxCell>
        <mxCell id="QPqO4CgqATaOOKAo1dil-251" value="" style="verticalLabelPosition=bottom;verticalAlign=top;html=1;shadow=0;dashed=0;strokeWidth=1;shape=mxgraph.android.phone2;strokeColor=#c0c0c0;fillColor=#CCFFFF;" vertex="1" parent="1">
          <mxGeometry x="170" y="1470" width="300" height="600" as="geometry" />
        </mxCell>
        <mxCell id="QPqO4CgqATaOOKAo1dil-252" value="meditate start page&lt;br&gt;-choose time&lt;br&gt;-choose music&lt;br&gt;-start buttom" style="text;html=1;strokeColor=none;fillColor=none;align=center;verticalAlign=middle;whiteSpace=wrap;rounded=0;fontColor=#FFEDC4;fontFamily=Tahoma;fontSize=23;" vertex="1" parent="1">
          <mxGeometry x="210" y="1647.5" width="215" height="245" as="geometry" />
        </mxCell>
        <mxCell id="QPqO4CgqATaOOKAo1dil-253" value="" style="rounded=0;whiteSpace=wrap;html=1;rotation=90;fillColor=#3C4752;fontColor=#ffffff;strokeColor=#314354;" vertex="1" parent="1">
          <mxGeometry x="-300" y="872.5" width="505" height="280" as="geometry" />
        </mxCell>
        <mxCell id="QPqO4CgqATaOOKAo1dil-257" value="" style="edgeStyle=orthogonalEdgeStyle;rounded=0;orthogonalLoop=1;jettySize=auto;html=1;entryX=0.009;entryY=0.503;entryDx=0;entryDy=0;entryPerimeter=0;" edge="1" parent="1" source="QPqO4CgqATaOOKAo1dil-254" target="QPqO4CgqATaOOKAo1dil-24">
          <mxGeometry relative="1" as="geometry">
            <mxPoint x="272.5" y="1012.5000000000002" as="targetPoint" />
          </mxGeometry>
        </mxCell>
        <mxCell id="QPqO4CgqATaOOKAo1dil-254" value="" style="verticalLabelPosition=bottom;verticalAlign=top;html=1;shadow=0;dashed=0;strokeWidth=1;shape=mxgraph.android.phone2;strokeColor=#c0c0c0;fillColor=#CCFFFF;" vertex="1" parent="1">
          <mxGeometry x="-197.5" y="712.5" width="300" height="600" as="geometry" />
        </mxCell>
        <mxCell id="QPqO4CgqATaOOKAo1dil-255" value="Login / Signup&lt;br&gt;- need to figure out session and authorization logic in react native&lt;br&gt;-if phone is unlocked, then this app should be unlocked for the user" style="text;html=1;strokeColor=none;fillColor=none;align=center;verticalAlign=middle;whiteSpace=wrap;rounded=0;fontColor=#FFEDC4;fontFamily=Tahoma;fontSize=23;" vertex="1" parent="1">
          <mxGeometry x="-171.87" y="891.25" width="248.75" height="194" as="geometry" />
        </mxCell>
      </root>
    </mxGraphModel>
  </diagram>
</mxfile>
